<svg width="112" height="112" viewBox="0 0 112 112" fill="none" xmlns="http://www.w3.org/2000/svg">
<g clip-path="url(#clip0_5312_208424)">
<path d="M100.444 47.1115V44.8887V42.6673V40.4444H98.2211V38.2216V36.0002H95.9997V33.7773V31.556H93.7768V29.3331H91.5555V27.1118H89.3326V24.8889H87.1113V22.666H84.8884V20.4447H82.6655V18.2218H80.4442V16.0004H78.2213H75.9999V13.7776H73.7771H71.5557V11.5562H69.3328H67.1099H64.8886V9.33333H62.6657H60.4444H58.2215H56.0002H53.7773H51.5544H49.3331H47.1102V11.5562H44.8888H42.6659H40.4446V13.7776H38.2217H35.9988V16.0004H33.7775H31.5546V18.2218H29.3333V20.4447H27.1104V22.666H24.8891V24.8889H22.6662V27.1118H20.4433V29.3331H18.2219V31.556H15.9991V33.7773V36.0002H13.7777V38.2216V40.4444H11.5548V42.6673V44.8887V47.1115H9.3335V49.3329V51.5558V53.7771V56V58.2229V60.4442V62.6671V64.8884H11.5548V67.1113V69.3327V71.5556H13.7777V73.7784V75.9998H15.9991V78.2227V80.444H18.2219V82.6669H20.4433V84.8882H22.6662V87.1111H24.8891V89.334H27.1104V91.5553H29.3333V93.7782H31.5546V95.9996H33.7775H35.9988V98.2224H38.2217H40.4446V100.444H42.6659H44.8888H47.1102V102.667H49.3331H51.5544H53.7773H56.0002H58.2215H60.4444H62.6657H64.8886V100.444H67.1099H69.3328H71.5557V98.2224H73.7771H75.9999V95.9996H78.2213H80.4442V93.7782H82.6655V91.5553H84.8884V89.334H87.1113V87.1111H89.3326V84.8882H91.5555V82.6669H93.7768V80.444H95.9997V78.2227V75.9998H98.2211V73.7784V71.5556H100.444V69.3327V67.1113V64.8884H102.667V62.6671V60.4442V58.2229V56V53.7771V51.5558V49.3329V47.1115H100.444Z" fill="url(#paint0_linear_5312_208424)"/>
<path d="M102.667 62.6671H100.444V64.8884H102.667V62.6671Z" fill="#009C44"/>
<path d="M102.667 60.4442H100.444V62.6671H102.667V60.4442Z" fill="#009C44"/>
<path d="M102.667 58.2229H100.444V60.4442H102.667V58.2229Z" fill="#009C44"/>
<path d="M102.667 56H100.444V58.2229H102.667V56Z" fill="#009C44"/>
<path d="M102.667 53.7771H100.444V56H102.667V53.7771Z" fill="#009C44"/>
<path d="M102.667 51.5558H100.444V53.7771H102.667V51.5558Z" fill="#64E666"/>
<path d="M102.667 49.3329H100.444V51.5558H102.667V49.3329Z" fill="#64E666"/>
<path d="M102.667 47.1115H100.444V49.3329H102.667V47.1115Z" fill="#64E666"/>
<path d="M100.444 69.3327H98.2212V71.5556H100.444V69.3327Z" fill="#167F40"/>
<path d="M100.444 44.8887H98.2212V47.1116H100.444V44.8887Z" fill="#64E666"/>
<path d="M100.444 42.6673H98.2212V44.8887H100.444V42.6673Z" fill="#64E666"/>
<path d="M100.444 40.4444H98.2212V42.6673H100.444V40.4444Z" fill="#64E666"/>
<path d="M98.2208 73.7784H95.9995V75.9998H98.2208V73.7784Z" fill="#167F40"/>
<path d="M98.2208 71.5555H95.9995V73.7784H98.2208V71.5555Z" fill="#009C44"/>
<path d="M98.2208 38.2216H95.9995V40.4444H98.2208V38.2216Z" fill="#64E666"/>
<path d="M98.2208 36.0002H95.9995V38.2215H98.2208V36.0002Z" fill="#64E666"/>
<path d="M95.9998 78.2227H93.7769V80.444H95.9998V78.2227Z" fill="#167F40"/>
<path d="M95.9998 75.9998H93.7769V78.2226H95.9998V75.9998Z" fill="#009C44"/>
<path d="M95.9998 51.5558H93.7769V53.7771H95.9998V51.5558Z" fill="#64E666"/>
<path d="M95.9998 33.7773H93.7769V36.0002H95.9998V33.7773Z" fill="#64E666"/>
<path d="M95.9998 31.556H93.7769V33.7773H95.9998V31.556Z" fill="#64E666"/>
<path d="M93.777 80.444H91.5557V82.6669H93.777V80.444Z" fill="#167F40"/>
<path d="M93.777 38.2216H91.5557V40.4444H93.777V38.2216Z" fill="#64E666"/>
<path d="M93.777 29.3331H91.5557V31.556H93.777V29.3331Z" fill="#64E666"/>
<path d="M91.5554 82.6669H89.3325V84.8882H91.5554V82.6669Z" fill="#167F40"/>
<path d="M91.5554 44.8887H89.3325V47.1116H91.5554V44.8887Z" fill="#64E666"/>
<path d="M91.5554 31.556H89.3325V33.7773H91.5554V31.556Z" fill="#64E666"/>
<path d="M91.5554 27.1118H89.3325V29.3331H91.5554V27.1118Z" fill="#64E666"/>
<path d="M89.3327 84.8882H87.1113V87.1111H89.3327V84.8882Z" fill="#167F40"/>
<path d="M89.3327 33.7773H87.1113V36.0002H89.3327V33.7773Z" fill="#64E666"/>
<path d="M89.3327 24.8889H87.1113V27.1118H89.3327V24.8889Z" fill="#64E666"/>
<path d="M87.1111 87.1111H84.8882V89.334H87.1111V87.1111Z" fill="#167F40"/>
<path d="M87.1111 27.1118H84.8882V29.3331H87.1111V27.1118Z" fill="#64E666"/>
<path d="M87.1111 22.666H84.8882V24.8889H87.1111V22.666Z" fill="#64E666"/>
<path d="M84.8884 89.334H82.6655V91.5553H84.8884V89.334Z" fill="#167F40"/>
<path d="M84.8884 87.1111H82.6655V89.334H84.8884V87.1111Z" fill="#009C44"/>
<path d="M84.8884 33.7773H82.6655V36.0002H84.8884V33.7773Z" fill="#64E666"/>
<path d="M84.8884 24.8889H82.6655V27.1118H84.8884V24.8889Z" fill="#64E666"/>
<path d="M84.8884 20.4447H82.6655V22.666H84.8884V20.4447Z" fill="#64E666"/>
<path d="M82.6657 91.5553H80.4443V93.7782H82.6657V91.5553Z" fill="#167F40"/>
<path d="M82.6657 89.334H80.4443V91.5553H82.6657V89.334Z" fill="#009C44"/>
<path d="M82.6657 18.2218H80.4443V20.4447H82.6657V18.2218Z" fill="#64E666"/>
<path d="M80.4441 93.7782H78.2212V95.9995H80.4441V93.7782Z" fill="#167F40"/>
<path d="M80.4441 91.5553H78.2212V93.7782H80.4441V91.5553Z" fill="#64E666"/>
<path d="M80.4441 20.4447H78.2212V22.666H80.4441V20.4447Z" fill="#64E666"/>
<path d="M80.4441 16.0004H78.2212V18.2218H80.4441V16.0004Z" fill="#64E666"/>
<path d="M78.2213 93.7782H76V95.9995H78.2213V93.7782Z" fill="#167F40"/>
<path d="M78.2213 91.5553H76V93.7782H78.2213V91.5553Z" fill="#64E666"/>
<path d="M78.2213 29.3331H76V31.556H78.2213V29.3331Z" fill="#64E666"/>
<path d="M78.2213 16.0004H76V18.2218H78.2213V16.0004Z" fill="#64E666"/>
<path d="M75.9997 95.9995H73.7769V98.2224H75.9997V95.9995Z" fill="#167F40"/>
<path d="M75.9997 93.7782H73.7769V95.9995H75.9997V93.7782Z" fill="#64E666"/>
<path d="M75.9997 24.8889H73.7769V27.1118H75.9997V24.8889Z" fill="#64E666"/>
<path d="M75.9997 18.2218H73.7769V20.4447H75.9997V18.2218Z" fill="#64E666"/>
<path d="M75.9997 16.0004H73.7769V18.2218H75.9997V16.0004Z" fill="#64E666"/>
<path d="M75.9997 13.7776H73.7769V16.0004H75.9997V13.7776Z" fill="#64E666"/>
<path d="M73.777 95.9995H71.5557V98.2224H73.777V95.9995Z" fill="#167F40"/>
<path d="M73.777 93.7782H71.5557V95.9995H73.777V93.7782Z" fill="#64E666"/>
<path d="M73.777 16.0004H71.5557V18.2218H73.777V16.0004Z" fill="#64E666"/>
<path d="M73.777 13.7776H71.5557V16.0004H73.777V13.7776Z" fill="#64E666"/>
<path d="M71.5559 98.2224H69.333V100.444H71.5559V98.2224Z" fill="#167F40"/>
<path d="M71.5559 95.9995H69.333V98.2224H71.5559V95.9995Z" fill="#167F40"/>
<path d="M71.5559 93.7782H69.333V95.9995H71.5559V93.7782Z" fill="#64E666"/>
<path d="M71.5559 13.7776H69.333V16.0004H71.5559V13.7776Z" fill="#64E666"/>
<path d="M71.5559 11.5562H69.333V13.7775H71.5559V11.5562Z" fill="#64E666"/>
<path d="M69.3327 98.2224H67.1099V100.444H69.3327V98.2224Z" fill="#167F40"/>
<path d="M69.3327 95.9995H67.1099V98.2224H69.3327V95.9995Z" fill="#167F40"/>
<path d="M69.3327 27.1118H67.1099V29.3331H69.3327V27.1118Z" fill="#64E666"/>
<path d="M69.3327 20.4447H67.1099V22.666H69.3327V20.4447Z" fill="#64E666"/>
<path d="M69.3327 13.7776H67.1099V16.0004H69.3327V13.7776Z" fill="#64E666"/>
<path d="M69.3327 11.5562H67.1099V13.7775H69.3327V11.5562Z" fill="#64E666"/>
<path d="M67.11 98.2224H64.8887V100.444H67.11V98.2224Z" fill="#167F40"/>
<path d="M67.11 95.9995H64.8887V98.2224H67.11V95.9995Z" fill="#167F40"/>
<path d="M67.11 16.0004H64.8887V18.2218H67.11V16.0004Z" fill="#64E666"/>
<path d="M67.11 13.7776H64.8887V16.0004H67.11V13.7776Z" fill="#64E666"/>
<path d="M67.11 11.5562H64.8887V13.7775H67.11V11.5562Z" fill="#64E666"/>
<path d="M64.8884 100.444H62.6655V102.667H64.8884V100.444Z" fill="#167F40"/>
<path d="M64.8884 98.2224H62.6655V100.444H64.8884V98.2224Z" fill="#167F40"/>
<path d="M64.8884 95.9995H62.6655V98.2224H64.8884V95.9995Z" fill="#64E666"/>
<path d="M64.8884 11.5562H62.6655V13.7775H64.8884V11.5562Z" fill="#64E666"/>
<path d="M64.8884 9.33333H62.6655V11.5562H64.8884V9.33333Z" fill="#64E666"/>
<path d="M62.6657 100.444H60.4443V102.667H62.6657V100.444Z" fill="#167F40"/>
<path d="M62.6657 98.2224H60.4443V100.444H62.6657V98.2224Z" fill="#167F40"/>
<path d="M62.6657 95.9995H60.4443V98.2224H62.6657V95.9995Z" fill="#64E666"/>
<path d="M62.6657 16.0004H60.4443V18.2218H62.6657V16.0004Z" fill="#64E666"/>
<path d="M62.6657 11.5562H60.4443V13.7775H62.6657V11.5562Z" fill="#64E666"/>
<path d="M62.6657 9.33333H60.4443V11.5562H62.6657V9.33333Z" fill="#64E666"/>
<path d="M60.4446 100.444H58.2217V102.667H60.4446V100.444Z" fill="#167F40"/>
<path d="M60.4446 98.2224H58.2217V100.444H60.4446V98.2224Z" fill="#167F40"/>
<path d="M60.4446 95.9995H58.2217V98.2224H60.4446V95.9995Z" fill="#64E666"/>
<path d="M60.4446 27.1118H58.2217V29.3331H60.4446V27.1118Z" fill="#64E666"/>
<path d="M60.4446 20.4447H58.2217V22.666H60.4446V20.4447Z" fill="#64E666"/>
<path d="M60.4446 11.5562H58.2217V13.7775H60.4446V11.5562Z" fill="#64E666"/>
<path d="M60.4446 9.33333H58.2217V11.5562H60.4446V9.33333Z" fill="#64E666"/>
<path d="M58.2213 100.444H56V102.667H58.2213V100.444Z" fill="#167F40"/>
<path d="M58.2213 98.2224H56V100.444H58.2213V98.2224Z" fill="#167F40"/>
<path d="M58.2213 95.9995H56V98.2224H58.2213V95.9995Z" fill="#64E666"/>
<path d="M58.2213 11.5562H56V13.7775H58.2213V11.5562Z" fill="#64E666"/>
<path d="M58.2213 9.33333H56V11.5562H58.2213V9.33333Z" fill="#64E666"/>
<path d="M56.0002 100.444H53.7773V102.667H56.0002V100.444Z" fill="#167F40"/>
<path d="M56.0002 98.2224H53.7773V100.444H56.0002V98.2224Z" fill="#167F40"/>
<path d="M56.0002 95.9995H53.7773V98.2224H56.0002V95.9995Z" fill="#64E666"/>
<path d="M56.0002 11.5562H53.7773V13.7775H56.0002V11.5562Z" fill="#64E666"/>
<path d="M56.0002 9.33333H53.7773V11.5562H56.0002V9.33333Z" fill="#64E666"/>
<path d="M53.7771 100.444H51.5542V102.667H53.7771V100.444Z" fill="#167F40"/>
<path d="M53.7771 98.2224H51.5542V100.444H53.7771V98.2224Z" fill="#167F40"/>
<path d="M53.7771 95.9995H51.5542V98.2224H53.7771V95.9995Z" fill="#009C44"/>
<path d="M53.7771 93.7782H51.5542V95.9995H53.7771V93.7782Z" fill="#64E666"/>
<path d="M53.7771 18.2218H51.5542V20.4447H53.7771V18.2218Z" fill="#64E666"/>
<path d="M53.7771 13.7776H51.5542V16.0004H53.7771V13.7776Z" fill="#64E666"/>
<path d="M53.7771 11.5562H51.5542V13.7775H53.7771V11.5562Z" fill="#64E666"/>
<path d="M53.7771 9.33333H51.5542V11.5562H53.7771V9.33333Z" fill="#64E666"/>
<path d="M51.5543 100.444H49.333V102.667H51.5543V100.444Z" fill="#167F40"/>
<path d="M51.5543 98.2224H49.333V100.444H51.5543V98.2224Z" fill="#167F40"/>
<path d="M51.5543 95.9995H49.333V98.2224H51.5543V95.9995Z" fill="#009C44"/>
<path d="M51.5543 93.7782H49.333V95.9995H51.5543V93.7782Z" fill="#64E666"/>
<path d="M51.5543 24.8889H49.333V27.1118H51.5543V24.8889Z" fill="#64E666"/>
<path d="M51.5543 11.5562H49.333V13.7775H51.5543V11.5562Z" fill="#64E666"/>
<path d="M51.5543 9.33333H49.333V11.5562H51.5543V9.33333Z" fill="#64E666"/>
<path d="M49.3332 100.444H47.1104V102.667H49.3332V100.444Z" fill="#167F40"/>
<path d="M49.3332 98.2224H47.1104V100.444H49.3332V98.2224Z" fill="#167F40"/>
<path d="M49.3332 95.9995H47.1104V98.2224H49.3332V95.9995Z" fill="#009C44"/>
<path d="M49.3332 93.7782H47.1104V95.9995H49.3332V93.7782Z" fill="#64E666"/>
<path d="M49.3332 11.5562H47.1104V13.7775H49.3332V11.5562Z" fill="#64E666"/>
<path d="M49.3332 9.33333H47.1104V11.5562H49.3332V9.33333Z" fill="#64E666"/>
<path d="M47.11 98.2224H44.8887V100.444H47.11V98.2224Z" fill="#167F40"/>
<path d="M47.11 95.9995H44.8887V98.2224H47.11V95.9995Z" fill="#167F40"/>
<path d="M47.11 93.7782H44.8887V95.9995H47.11V93.7782Z" fill="#009C44"/>
<path d="M47.11 91.5553H44.8887V93.7782H47.11V91.5553Z" fill="#64E666"/>
<path d="M47.11 20.4447H44.8887V22.666H47.11V20.4447Z" fill="#64E666"/>
<path d="M47.11 13.7776H44.8887V16.0004H47.11V13.7776Z" fill="#64E666"/>
<path d="M47.11 11.5562H44.8887V13.7775H47.11V11.5562Z" fill="#64E666"/>
<path d="M44.8889 98.2224H42.666V100.444H44.8889V98.2224Z" fill="#167F40"/>
<path d="M44.8889 95.9995H42.666V98.2224H44.8889V95.9995Z" fill="#167F40"/>
<path d="M44.8889 93.7782H42.666V95.9995H44.8889V93.7782Z" fill="#009C44"/>
<path d="M44.8889 91.5553H42.666V93.7782H44.8889V91.5553Z" fill="#64E666"/>
<path d="M44.8889 13.7776H42.666V16.0004H44.8889V13.7776Z" fill="#64E666"/>
<path d="M44.8889 11.5562H42.666V13.7775H44.8889V11.5562Z" fill="#64E666"/>
<path d="M42.6662 98.2224H40.4448V100.444H42.6662V98.2224Z" fill="#167F40"/>
<path d="M42.6662 95.9995H40.4448V98.2224H42.6662V95.9995Z" fill="#009C44"/>
<path d="M42.6662 93.7782H40.4448V95.9995H42.6662V93.7782Z" fill="#167F40"/>
<path d="M42.6662 91.5553H40.4448V93.7782H42.6662V91.5553Z" fill="#64E666"/>
<path d="M42.6662 16.0004H40.4448V18.2218H42.6662V16.0004Z" fill="#64E666"/>
<path d="M42.6662 13.7776H40.4448V16.0004H42.6662V13.7776Z" fill="#64E666"/>
<path d="M42.6662 11.5562H40.4448V13.7775H42.6662V11.5562Z" fill="#64E666"/>
<path d="M40.4446 95.9995H38.2217V98.2224H40.4446V95.9995Z" fill="#167F40"/>
<path d="M40.4446 93.7782H38.2217V95.9995H40.4446V93.7782Z" fill="#167F40"/>
<path d="M40.4446 91.5553H38.2217V93.7782H40.4446V91.5553Z" fill="#009C44"/>
<path d="M40.4446 89.334H38.2217V91.5553H40.4446V89.334Z" fill="#64E666"/>
<path d="M40.4446 29.3331H38.2217V31.556H40.4446V29.3331Z" fill="#64E666"/>
<path d="M40.4446 22.666H38.2217V24.8889H40.4446V22.666Z" fill="#64E666"/>
<path d="M40.4446 13.7776H38.2217V16.0004H40.4446V13.7776Z" fill="#64E666"/>
<path d="M38.2219 95.9995H35.999V98.2224H38.2219V95.9995Z" fill="#167F40"/>
<path d="M38.2219 93.7782H35.999V95.9995H38.2219V93.7782Z" fill="#167F40"/>
<path d="M38.2219 91.5553H35.999V93.7782H38.2219V91.5553Z" fill="#167F40"/>
<path d="M38.2219 89.334H35.999V91.5553H38.2219V89.334Z" fill="#64E666"/>
<path d="M38.2219 13.7776H35.999V16.0004H38.2219V13.7776Z" fill="#64E666"/>
<path d="M35.9987 93.7782H33.7773V95.9995H35.9987V93.7782Z" fill="#167F40"/>
<path d="M35.9987 91.5553H33.7773V93.7782H35.9987V91.5553Z" fill="#167F40"/>
<path d="M35.9987 89.334H33.7773V91.5553H35.9987V89.334Z" fill="#009C44"/>
<path d="M35.9987 87.1111H33.7773V89.334H35.9987V87.1111Z" fill="#64E666"/>
<path d="M35.9987 16.0004H33.7773V18.2218H35.9987V16.0004Z" fill="#64E666"/>
<path d="M33.7776 93.7782H31.5547V95.9995H33.7776V93.7782Z" fill="#167F40"/>
<path d="M33.7776 91.5553H31.5547V93.7782H33.7776V91.5553Z" fill="#009C44"/>
<path d="M33.7776 89.334H31.5547V91.5553H33.7776V89.334Z" fill="#167F40"/>
<path d="M33.7776 87.1111H31.5547V89.334H33.7776V87.1111Z" fill="#64E666"/>
<path d="M33.7776 84.8882H31.5547V87.1111H33.7776V84.8882Z" fill="#64E666"/>
<path d="M33.7776 20.4447H31.5547V22.666H33.7776V20.4447Z" fill="#64E666"/>
<path d="M33.7776 16.0004H31.5547V18.2218H33.7776V16.0004Z" fill="#64E666"/>
<path d="M31.5548 91.5553H29.3335V93.7782H31.5548V91.5553Z" fill="#167F40"/>
<path d="M31.5548 89.334H29.3335V91.5553H31.5548V89.334Z" fill="#167F40"/>
<path d="M31.5548 87.1111H29.3335V89.334H31.5548V87.1111Z" fill="#167F40"/>
<path d="M31.5548 84.8882H29.3335V87.1111H31.5548V84.8882Z" fill="#009C44"/>
<path d="M31.5548 82.6669H29.3335V84.8882H31.5548V82.6669Z" fill="#64E666"/>
<path d="M31.5548 44.8887H29.3335V47.1116H31.5548V44.8887Z" fill="#64E666"/>
<path d="M31.5548 27.1118H29.3335V29.3331H31.5548V27.1118Z" fill="#64E666"/>
<path d="M31.5548 18.2218H29.3335V20.4447H31.5548V18.2218Z" fill="#64E666"/>
<path d="M29.3332 89.334H27.1104V91.5553H29.3332V89.334Z" fill="#167F40"/>
<path d="M29.3332 87.1111H27.1104V89.334H29.3332V87.1111Z" fill="#009C44"/>
<path d="M29.3332 84.8882H27.1104V87.1111H29.3332V84.8882Z" fill="#167F40"/>
<path d="M29.3332 82.6669H27.1104V84.8882H29.3332V82.6669Z" fill="#009C44"/>
<path d="M29.3332 80.444H27.1104V82.6669H29.3332V80.444Z" fill="#64E666"/>
<path d="M29.3332 36.0002H27.1104V38.2215H29.3332V36.0002Z" fill="#64E666"/>
<path d="M29.3332 22.666H27.1104V24.8889H29.3332V22.666Z" fill="#64E666"/>
<path d="M29.3332 20.4447H27.1104V22.666H29.3332V20.4447Z" fill="#009C44"/>
<path d="M27.1105 87.1111H24.8892V89.334H27.1105V87.1111Z" fill="#167F40"/>
<path d="M27.1105 84.8882H24.8892V87.1111H27.1105V84.8882Z" fill="#167F40"/>
<path d="M27.1105 82.6669H24.8892V84.8882H27.1105V82.6669Z" fill="#167F40"/>
<path d="M27.1105 80.444H24.8892V82.6669H27.1105V80.444Z" fill="#009C44"/>
<path d="M27.1105 78.2227H24.8892V80.444H27.1105V78.2227Z" fill="#64E666"/>
<path d="M27.1105 75.9998H24.8892V78.2226H27.1105V75.9998Z" fill="#64E666"/>
<path d="M27.1105 22.666H24.8892V24.8889H27.1105V22.666Z" fill="#009C44"/>
<path d="M24.8889 84.8882H22.666V87.1111H24.8889V84.8882Z" fill="#167F40"/>
<path d="M24.8889 82.6669H22.666V84.8882H24.8889V82.6669Z" fill="#009C44"/>
<path d="M24.8889 80.444H22.666V82.6669H24.8889V80.444Z" fill="#167F40"/>
<path d="M24.8889 78.2227H22.666V80.444H24.8889V78.2227Z" fill="#009C44"/>
<path d="M24.8889 75.9998H22.666V78.2226H24.8889V75.9998Z" fill="#009C44"/>
<path d="M24.8889 73.7784H22.666V75.9998H24.8889V73.7784Z" fill="#64E666"/>
<path d="M24.8889 47.1115H22.666V49.3329H24.8889V47.1115Z" fill="#64E666"/>
<path d="M24.8889 27.1118H22.666V29.3331H24.8889V27.1118Z" fill="#64E666"/>
<path d="M24.8889 24.8889H22.666V27.1118H24.8889V24.8889Z" fill="#009C44"/>
<path d="M22.6662 82.6669H20.4434V84.8882H22.6662V82.6669Z" fill="#167F40"/>
<path d="M22.6662 80.444H20.4434V82.6669H22.6662V80.444Z" fill="#167F40"/>
<path d="M22.6662 78.2227H20.4434V80.444H22.6662V78.2227Z" fill="#167F40"/>
<path d="M22.6662 75.9998H20.4434V78.2226H22.6662V75.9998Z" fill="#167F40"/>
<path d="M22.6662 73.7784H20.4434V75.9998H22.6662V73.7784Z" fill="#167F40"/>
<path d="M22.6662 71.5555H20.4434V73.7784H22.6662V71.5555Z" fill="#009C44"/>
<path d="M22.6662 69.3327H20.4434V71.5556H22.6662V69.3327Z" fill="#64E666"/>
<path d="M22.6662 36.0002H20.4434V38.2215H22.6662V36.0002Z" fill="#64E666"/>
<path d="M22.6662 33.7773H20.4434V36.0002H22.6662V33.7773Z" fill="#64E666"/>
<path d="M22.6662 31.556H20.4434V33.7773H22.6662V31.556Z" fill="#64E666"/>
<path d="M22.6662 27.1118H20.4434V29.3331H22.6662V27.1118Z" fill="#009C44"/>
<path d="M20.4435 80.444H18.2222V82.6669H20.4435V80.444Z" fill="#167F40"/>
<path d="M20.4435 78.2227H18.2222V80.444H20.4435V78.2227Z" fill="#009C44"/>
<path d="M20.4435 75.9998H18.2222V78.2226H20.4435V75.9998Z" fill="#167F40"/>
<path d="M20.4435 73.7784H18.2222V75.9998H20.4435V73.7784Z" fill="#167F40"/>
<path d="M20.4435 71.5555H18.2222V73.7784H20.4435V71.5555Z" fill="#167F40"/>
<path d="M20.4435 69.3327H18.2222V71.5556H20.4435V69.3327Z" fill="#009C44"/>
<path d="M20.4435 67.1113H18.2222V69.3327H20.4435V67.1113Z" fill="#64E666"/>
<path d="M20.4435 64.8884H18.2222V67.1113H20.4435V64.8884Z" fill="#64E666"/>
<path d="M20.4435 62.6671H18.2222V64.8884H20.4435V62.6671Z" fill="#64E666"/>
<path d="M20.4435 42.6673H18.2222V44.8887H20.4435V42.6673Z" fill="#64E666"/>
<path d="M20.4435 40.4444H18.2222V42.6673H20.4435V40.4444Z" fill="#64E666"/>
<path d="M20.4435 38.2216H18.2222V40.4444H20.4435V38.2216Z" fill="#64E666"/>
<path d="M20.4435 36.0002H18.2222V38.2215H20.4435V36.0002Z" fill="#167F40"/>
<path d="M20.4435 33.7773H18.2222V36.0002H20.4435V33.7773Z" fill="#167F40"/>
<path d="M20.4435 31.556H18.2222V33.7773H20.4435V31.556Z" fill="#167F40"/>
<path d="M20.4435 29.3331H18.2222V31.556H20.4435V29.3331Z" fill="#009C44"/>
<path d="M18.2219 78.2227H15.999V80.444H18.2219V78.2227Z" fill="#167F40"/>
<path d="M18.2219 75.9998H15.999V78.2226H18.2219V75.9998Z" fill="#167F40"/>
<path d="M18.2219 73.7784H15.999V75.9998H18.2219V73.7784Z" fill="#167F40"/>
<path d="M18.2219 71.5555H15.999V73.7784H18.2219V71.5555Z" fill="#009C44"/>
<path d="M18.2219 69.3327H15.999V71.5556H18.2219V69.3327Z" fill="#167F40"/>
<path d="M18.2219 67.1113H15.999V69.3327H18.2219V67.1113Z" fill="#167F40"/>
<path d="M18.2219 64.8884H15.999V67.1113H18.2219V64.8884Z" fill="#009C44"/>
<path d="M18.2219 62.6671H15.999V64.8884H18.2219V62.6671Z" fill="#64E666"/>
<path d="M18.2219 60.4442H15.999V62.6671H18.2219V60.4442Z" fill="#64E666"/>
<path d="M18.2219 58.2229H15.999V60.4442H18.2219V58.2229Z" fill="#64E666"/>
<path d="M18.2219 56H15.999V58.2229H18.2219V56Z" fill="#64E666"/>
<path d="M18.2219 53.7771H15.999V56H18.2219V53.7771Z" fill="#64E666"/>
<path d="M18.2219 51.5558H15.999V53.7771H18.2219V51.5558Z" fill="#64E666"/>
<path d="M18.2219 49.3329H15.999V51.5558H18.2219V49.3329Z" fill="#64E666"/>
<path d="M18.2219 47.1115H15.999V49.3329H18.2219V47.1115Z" fill="#64E666"/>
<path d="M18.2219 44.8887H15.999V47.1116H18.2219V44.8887Z" fill="#009C44"/>
<path d="M18.2219 42.6673H15.999V44.8887H18.2219V42.6673Z" fill="#009C44"/>
<path d="M18.2219 40.4444H15.999V42.6673H18.2219V40.4444Z" fill="#009C44"/>
<path d="M18.2219 38.2216H15.999V40.4444H18.2219V38.2216Z" fill="#167F40"/>
<path d="M18.2219 36.0002H15.999V38.2215H18.2219V36.0002Z" fill="#167F40"/>
<path d="M18.2219 33.7773H15.999V36.0002H18.2219V33.7773Z" fill="#009C44"/>
<path d="M18.2219 31.556H15.999V33.7773H18.2219V31.556Z" fill="#009C44"/>
<path d="M100.444 64.8884V67.1113V69.3327H102.667V67.1113V64.8884H100.444Z" fill="black"/>
<path d="M100.444 71.5555H98.2212V73.7784H100.444V71.5555Z" fill="black"/>
<path d="M98.2213 75.9998H96V78.2227H98.2213V75.9998Z" fill="black"/>
<path d="M95.9998 80.444H93.7769V82.6669H95.9998V80.444Z" fill="black"/>
<path d="M93.777 82.6669H91.5557V84.8882H93.777V82.6669Z" fill="black"/>
<path d="M91.5554 84.8882H89.3325V87.1111H91.5554V84.8882Z" fill="black"/>
<path d="M89.3327 87.1111H87.1113V89.334H89.3327V87.1111Z" fill="black"/>
<path d="M87.1116 89.334H84.8887V91.5553H87.1116V89.334Z" fill="black"/>
<path d="M84.8884 91.5553H82.6655V93.7782H84.8884V91.5553Z" fill="black"/>
<path d="M82.6657 93.7782H80.4443V95.9996H82.6657V93.7782Z" fill="black"/>
<path d="M76 95.9995V98.2224H78.2213H80.4442V95.9995H78.2213H76Z" fill="black"/>
<path d="M71.5557 98.2224V100.444H73.777H75.9999V98.2224H73.777H71.5557Z" fill="black"/>
<path d="M64.8887 100.444V102.667H67.11H69.3329V100.444H67.11H64.8887Z" fill="black"/>
<path d="M60.4443 102.667H58.2214H56.0001H53.7772H51.5543H49.333V104.89H51.5543H53.7772H56.0001H58.2214H60.4443H62.6657H64.8886V102.667H62.6657H60.4443Z" fill="black"/>
<path d="M42.666 100.444V102.667H44.8889H47.1102V100.444H44.8889H42.666Z" fill="black"/>
<path d="M40.4446 98.2224H38.2217V100.444H40.4446V98.2224Z" fill="black"/>
<path d="M35.9992 95.9995H33.7778V98.2224H35.9992V95.9995Z" fill="black"/>
<path d="M31.5548 93.7782H29.3335V95.9996H31.5548V93.7782Z" fill="black"/>
<path d="M29.3332 91.5553H27.1104V93.7782H29.3332V91.5553Z" fill="black"/>
<path d="M27.1105 89.334H24.8892V91.5553H27.1105V89.334Z" fill="black"/>
<path d="M24.8894 87.1111H22.6665V89.334H24.8894V87.1111Z" fill="black"/>
<path d="M22.6662 84.8882H20.4434V87.1111H22.6662V84.8882Z" fill="black"/>
<path d="M20.4435 82.6669H18.2222V84.8882H20.4435V82.6669Z" fill="black"/>
<path d="M18.2219 80.444H15.999V82.6669H18.2219V80.444Z" fill="black"/>
<path d="M15.9992 75.9998H13.7778V78.2227H15.9992V75.9998Z" fill="black"/>
<path d="M15.9992 73.7784H13.7778V75.9998H15.9992V73.7784Z" fill="#167F40"/>
<path d="M15.9992 71.5555H13.7778V73.7784H15.9992V71.5555Z" fill="#167F40"/>
<path d="M15.9992 69.3327H13.7778V71.5556H15.9992V69.3327Z" fill="#167F40"/>
<path d="M15.9992 67.1113H13.7778V69.3327H15.9992V67.1113Z" fill="#009C44"/>
<path d="M15.9992 64.8884H13.7778V67.1113H15.9992V64.8884Z" fill="#167F40"/>
<path d="M15.9992 62.6671H13.7778V64.8884H15.9992V62.6671Z" fill="#009C44"/>
<path d="M15.9992 60.4442H13.7778V62.6671H15.9992V60.4442Z" fill="#009C44"/>
<path d="M15.9992 58.2229H13.7778V60.4442H15.9992V58.2229Z" fill="#009C44"/>
<path d="M15.9992 56H13.7778V58.2229H15.9992V56Z" fill="#009C44"/>
<path d="M15.9992 53.7771H13.7778V56H15.9992V53.7771Z" fill="#009C44"/>
<path d="M15.9992 51.5558H13.7778V53.7771H15.9992V51.5558Z" fill="#009C44"/>
<path d="M15.9992 49.3329H13.7778V51.5558H15.9992V49.3329Z" fill="#009C44"/>
<path d="M15.9992 47.1115H13.7778V49.3329H15.9992V47.1115Z" fill="#167F40"/>
<path d="M15.9992 44.8887H13.7778V47.1116H15.9992V44.8887Z" fill="#167F40"/>
<path d="M15.9992 42.6673H13.7778V44.8887H15.9992V42.6673Z" fill="#167F40"/>
<path d="M15.9992 40.4444H13.7778V42.6673H15.9992V40.4444Z" fill="#167F40"/>
<path d="M15.9992 38.2216H13.7778V40.4444H15.9992V38.2216Z" fill="#167F40"/>
<path d="M15.9992 36.0002H13.7778V38.2215H15.9992V36.0002Z" fill="#167F40"/>
<path d="M13.7776 69.3327H11.5547V71.5556H13.7776V69.3327Z" fill="#167F40"/>
<path d="M13.7776 67.1113H11.5547V69.3327H13.7776V67.1113Z" fill="#167F40"/>
<path d="M13.7776 64.8884H11.5547V67.1113H13.7776V64.8884Z" fill="#167F40"/>
<path d="M13.7776 62.6671H11.5547V64.8884H13.7776V62.6671Z" fill="#167F40"/>
<path d="M13.7776 60.4442H11.5547V62.6671H13.7776V60.4442Z" fill="#167F40"/>
<path d="M13.7776 58.2229H11.5547V60.4442H13.7776V58.2229Z" fill="#167F40"/>
<path d="M13.7776 56H11.5547V58.2229H13.7776V56Z" fill="#167F40"/>
<path d="M13.7776 53.7771H11.5547V56H13.7776V53.7771Z" fill="#167F40"/>
<path d="M13.7776 51.5558H11.5547V53.7771H13.7776V51.5558Z" fill="#167F40"/>
<path d="M13.7776 49.3329H11.5547V51.5558H13.7776V49.3329Z" fill="#167F40"/>
<path d="M13.7776 47.1115H11.5547V49.3329H13.7776V47.1115Z" fill="#167F40"/>
<path d="M13.7776 44.8887H11.5547V47.1116H13.7776V44.8887Z" fill="#167F40"/>
<path d="M13.7776 42.6673H11.5547V44.8887H13.7776V42.6673Z" fill="#167F40"/>
<path d="M13.7776 40.4444H11.5547V42.6673H13.7776V40.4444Z" fill="#167F40"/>
<path d="M11.5548 62.6671H9.3335V64.8884H11.5548V62.6671Z" fill="#167F40"/>
<path d="M11.5548 60.4442H9.3335V62.6671H11.5548V60.4442Z" fill="#167F40"/>
<path d="M11.5548 58.223H9.3335V60.4443H11.5548V58.223Z" fill="#2B6991"/>
<path d="M11.5548 56.0001H9.3335V58.223H11.5548V56.0001Z" fill="#2B6991"/>
<path d="M11.5548 53.7771H9.3335V56H11.5548V53.7771Z" fill="#167F40"/>
<path d="M11.5548 51.5558H9.3335V53.7771H11.5548V51.5558Z" fill="#167F40"/>
<path d="M11.5548 49.3329H9.3335V51.5558H11.5548V49.3329Z" fill="#167F40"/>
<path d="M11.5548 47.1115H9.3335V49.3329H11.5548V47.1115Z" fill="#167F40"/>
<path d="M87.1111 49.3329H84.8882V51.5558H87.1111V49.3329Z" fill="#167F40"/>
<path d="M84.8883 49.3329H82.667V51.5558H84.8883V49.3329Z" fill="#167F40"/>
<path d="M82.6667 49.3329H80.4438V51.5558H82.6667V49.3329Z" fill="#167F40"/>
<path d="M80.444 53.7771H78.2227V56H80.444V53.7771Z" fill="#64E666"/>
<path d="M80.444 49.3329H78.2227V51.5558H80.444V49.3329Z" fill="#167F40"/>
<path d="M78.2229 60.4442H76V62.6671H78.2229V60.4442Z" fill="#167F40"/>
<path d="M78.2229 47.1116H76V49.3329H78.2229V47.1116Z" fill="#167F40"/>
<path d="M75.9997 71.5556H73.7783V73.7785H75.9997V71.5556Z" fill="#167F40"/>
<path d="M75.9997 64.8885H73.7783V67.1114H75.9997V64.8885Z" fill="#64E666"/>
<path d="M75.9997 60.4442H73.7783V62.6671H75.9997V60.4442Z" fill="#167F40"/>
<path d="M73.7786 71.5556H71.5557V73.7785H73.7786V71.5556Z" fill="#167F40"/>
<path d="M73.7786 44.8887H71.5557V47.1116H73.7786V44.8887Z" fill="#167F40"/>
<path d="M73.7786 36.0002H71.5557V38.2216H73.7786V36.0002Z" fill="#64E666"/>
<path d="M71.5554 71.5556H69.3325V73.7785H71.5554V71.5556Z" fill="#167F40"/>
<path d="M71.5554 58.2229H69.3325V60.4442H71.5554V58.2229Z" fill="#167F40"/>
<path d="M71.5554 49.3329H69.3325V51.5558H71.5554V49.3329Z" fill="#64E666"/>
<path d="M71.5554 44.8887H69.3325V47.1116H71.5554V44.8887Z" fill="#167F40"/>
<path d="M69.3327 69.3327H67.1113V71.5556H69.3327V69.3327Z" fill="#167F40"/>
<path d="M69.3327 58.2229H67.1113V60.4442H69.3327V58.2229Z" fill="#167F40"/>
<path d="M69.3327 44.8887H67.1113V47.1116H69.3327V44.8887Z" fill="#167F40"/>
<path d="M67.1116 69.3327H64.8887V71.5556H67.1116V69.3327Z" fill="#167F40"/>
<path d="M67.1116 33.7774H64.8887V36.0002H67.1116V33.7774Z" fill="#64E666"/>
<path d="M64.8883 69.3327H62.667V71.5556H64.8883V69.3327Z" fill="#167F40"/>
<path d="M64.8883 56H62.667V58.2229H64.8883V56Z" fill="#167F40"/>
<path d="M64.8883 42.6674H62.667V44.8887H64.8883V42.6674Z" fill="#167F40"/>
<path d="M62.6672 69.3327H60.4443V71.5556H62.6672V69.3327Z" fill="#167F40"/>
<path d="M62.6672 56H60.4443V58.2229H62.6672V56Z" fill="#167F40"/>
<path d="M62.6672 42.6674H60.4443V44.8887H62.6672V42.6674Z" fill="#167F40"/>
<path d="M60.444 69.3327H58.2227V71.5556H60.444V69.3327Z" fill="#167F40"/>
<path d="M60.444 56H58.2227V58.2229H60.444V56Z" fill="#167F40"/>
<path d="M60.444 42.6674H58.2227V44.8887H60.444V42.6674Z" fill="#167F40"/>
<path d="M58.2229 69.3327H56V71.5556H58.2229V69.3327Z" fill="#167F40"/>
<path d="M58.2229 56H56V58.2229H58.2229V56Z" fill="#167F40"/>
<path d="M58.2229 42.6674H56V44.8887H58.2229V42.6674Z" fill="#167F40"/>
<path d="M56.0002 69.3327H53.7773V71.5556H56.0002V69.3327Z" fill="#167F40"/>
<path d="M56.0002 56H53.7773V58.2229H56.0002V56Z" fill="#167F40"/>
<path d="M56.0002 42.6674H53.7773V44.8887H56.0002V42.6674Z" fill="#167F40"/>
<path d="M53.777 69.3327H51.5557V71.5556H53.777V69.3327Z" fill="#167F40"/>
<path d="M53.777 56H51.5557V58.2229H53.777V56Z" fill="#167F40"/>
<path d="M53.777 42.6674H51.5557V44.8887H53.777V42.6674Z" fill="#167F40"/>
<path d="M51.5559 69.3327H49.333V71.5556H51.5559V69.3327Z" fill="#167F40"/>
<path d="M51.5559 56H49.333V58.2229H51.5559V56Z" fill="#167F40"/>
<path d="M51.5559 42.6674H49.333V44.8887H51.5559V42.6674Z" fill="#167F40"/>
<path d="M49.3327 69.3327H47.1113V71.5556H49.3327V69.3327Z" fill="#167F40"/>
<path d="M49.3327 56H47.1113V58.2229H49.3327V56Z" fill="#167F40"/>
<path d="M49.3327 42.6674H47.1113V44.8887H49.3327V42.6674Z" fill="#167F40"/>
<path d="M47.1116 69.3327H44.8887V71.5556H47.1116V69.3327Z" fill="#167F40"/>
<path d="M47.1116 62.6671H44.8887V64.8885H47.1116V62.6671Z" fill="#64E666"/>
<path d="M47.1116 56H44.8887V58.2229H47.1116V56Z" fill="#167F40"/>
<path d="M47.1116 42.6674H44.8887V44.8887H47.1116V42.6674Z" fill="#167F40"/>
<path d="M44.8888 71.5556H42.6675V73.7785H44.8888V71.5556Z" fill="#167F40"/>
<path d="M44.8888 58.2229H42.6675V60.4442H44.8888V58.2229Z" fill="#167F40"/>
<path d="M44.8888 49.3329H42.6675V51.5558H44.8888V49.3329Z" fill="#64E666"/>
<path d="M44.8888 42.6674H42.6675V44.8887H44.8888V42.6674Z" fill="#167F40"/>
<path d="M44.8888 33.7774H42.6675V36.0002H44.8888V33.7774Z" fill="#64E666"/>
<path d="M42.6672 71.5556H40.4443V73.7785H42.6672V71.5556Z" fill="#167F40"/>
<path d="M42.6672 58.2229H40.4443V60.4442H42.6672V58.2229Z" fill="#167F40"/>
<path d="M42.6672 42.6674H40.4443V44.8887H42.6672V42.6674Z" fill="#167F40"/>
<path d="M40.4446 44.8887H38.2217V47.1116H40.4446V44.8887Z" fill="#167F40"/>
<path d="M38.2213 56H36V58.2229H38.2213V56Z" fill="#167F40"/>
<path d="M38.2213 44.8887H36V47.1116H38.2213V44.8887Z" fill="#167F40"/>
<path d="M38.2213 36.0002H36V38.2216H38.2213V36.0002Z" fill="#64E666"/>
<path d="M36.0002 42.6674H33.7773V44.8887H36.0002V42.6674Z" fill="#167F40"/>
<path d="M84.8882 42.6674H82.6669V40.4445H80.444V38.2216H78.2227H75.9998H73.7785H71.5556V36.0002H69.3327H67.1113H64.8885V33.7774H62.6671H60.4442H58.2229H56H53.7771H51.5558H49.3329H47.1116H44.8887V36.0002H42.6673H40.4445H38.2216V38.2216H36.0002H33.7773V40.4445V42.6674H36.0002V44.8887H38.2216H40.4445V42.6674H42.6673H44.8887H47.1116H49.3329H51.5558H53.7771H56H58.2229H60.4442H62.6671H64.8885V44.8887H67.1113H69.3327H71.5556H73.7785V47.1116H75.9998H78.2227V49.3329H80.444H82.6669H84.8882H87.1111V47.1116V44.8887V42.6674H84.8882Z" fill="black"/>
<path d="M78.2224 56V53.7771H75.9996V51.5558H73.7782H71.5553H69.3324V49.3329H67.1111H64.8882H62.6669H60.444H58.2227H55.9998H53.7769H51.5556H49.3327H47.1113H44.8884V51.5558H42.6671H40.4442H38.2213V53.7771H36V56H38.2213V58.2229H40.4442H42.6671H44.8884V56H47.1113H49.3327H51.5556H53.7769H55.9998H58.2227H60.444H62.6669H64.8882V58.2229H67.1111H69.3324H71.5553V60.4442H73.7782H75.9996H78.2224V62.6671H80.4438H82.6667V60.4442V58.2229V56H80.4438H78.2224Z" fill="black"/>
<path d="M75.9997 67.1114H73.7783V64.8885H71.5554H69.3326V62.6671H67.1112H64.8883H62.667H60.4441H58.2228H55.9999H53.777H51.5557H49.3328H47.1114V64.8885H44.8886H42.6672H40.4443V67.1114V69.3327V71.5556H42.6672H44.8886V69.3327H47.1114H49.3328H51.5557H53.777H55.9999H58.2228H60.4441H62.667H64.8883H67.1112H69.3326V71.5556H71.5554H73.7783H75.9997V73.7785H78.2226H80.4439V71.5556V69.3327V67.1114H78.2226H75.9997Z" fill="black"/>
</g>
<defs>
<linearGradient id="paint0_linear_5312_208424" x1="56.0002" y1="-20.4999" x2="56.0002" y2="67.5001" gradientUnits="userSpaceOnUse">
<stop stop-color="#64E666"/>
<stop offset="1" stop-color="#5EC969"/>
</linearGradient>
<clipPath id="clip0_5312_208424">
<rect width="112" height="112" fill="white"/>
</clipPath>
</defs>
</svg>
